# xmcd CD database file
#
# Track frame offsets:
#	150
#	17170
#	35105
#	52375
#	72130
#	95592
#	115106
#	134889
#	165763
#	201768
#
# Disc length: 2946 seconds
#
# Revision: 1
# Processed by: cddbd v1.5.2PL0 Copyright (c) Steve Scherf et al.
# Submitted via: CDex 1.51
#
DISCID=910b800a
DTITLE=Brantley Gilbert - The Devil Don't Sleep (Deluxe Tracks)
DYEAR=2017
DGENRE=Country
TTITLE0=At Least We Thought It Was (Demo)
TTITLE1=I've Been There Before (Demo)
TTITLE2=Against The World (Demo)
TTITLE3=Closer Than We've Been (Demo)
TTITLE4=You Promised (Demo)
TTITLE5=Read Me My Rights (Live at Red Rocks)
TTITLE6=Hell On Wheels (Live at Red Rocks)
TTITLE7=Grown Ass Man (Live at Red Rocks)
TTITLE8=Outlow Women (Live at Red Rocks)
TTITLE9=Kick It In The Sticks (Live at Red Rocks)
EXTD=YEAR: 2017
EXTT0=
EXTT1=
EXTT2=
EXTT3=
EXTT4=
EXTT5=
EXTT6=
EXTT7=
EXTT8=
EXTT9=
PLAYORDER=
